<svg width="720" height="640" viewBox="0 0 720 640" fill="none" xmlns="http://www.w3.org/2000/svg">
  <rect width="720" height="640" rx="48" fill="url(#paint0_linear)"/>
  <circle cx="537" cy="121" r="87" fill="#F97316" fill-opacity="0.2"/>
  <circle cx="172" cy="518" r="110" fill="#2563EB" fill-opacity="0.22"/>
  <rect x="170" y="72" width="380" height="496" rx="44" fill="#0F172A"/>
  <rect x="190" y="94" width="340" height="452" rx="32" fill="#F8FAFC"/>
  <rect x="312" y="112" width="96" height="10" rx="5" fill="#CBD5E1"/>
  <rect x="226" y="162" width="268" height="88" rx="24" fill="#DBEAFE"/>
  <rect x="226" y="282" width="128" height="128" rx="28" fill="#BFDBFE"/>
  <rect x="366" y="282" width="128" height="128" rx="28" fill="#E0F2FE"/>
  <rect x="226" y="432" width="268" height="26" rx="13" fill="#CBD5E1"/>
  <rect x="226" y="474" width="202" height="18" rx="9" fill="#E2E8F0"/>
  <path d="M289 357.5L330 398L434 297" stroke="#2563EB" stroke-width="24" stroke-linecap="round" stroke-linejoin="round"/>
  <defs>
    <linearGradient id="paint0_linear" x1="50" y1="26" x2="694" y2="624" gradientUnits="userSpaceOnUse">
      <stop stop-color="#EFF6FF"/>
      <stop offset="1" stop-color="#FFF7ED"/>
    </linearGradient>
  </defs>
</svg>